<mxfile host="app.diagrams.net" modified="2020-08-04T11:03:18.962Z" agent="5.0 (Windows NT 10.0; Win64; x64) AppleWebKit/537.36 (KHTML, like Gecko) Chrome/84.0.4147.89 Safari/537.36" etag="wJMbhulFnTSfLUl_POWd" version="13.5.9" type="github">
  <diagram id="07fea595-8f29-1299-0266-81d95cde20df" name="Page-1">
    <mxGraphModel dx="-788" dy="9" grid="1" gridSize="10" guides="1" tooltips="1" connect="1" arrows="1" fold="1" page="1" pageScale="1" pageWidth="1169" pageHeight="827" background="#ffffff" math="0" shadow="0">
      <root>
        <mxCell id="0" />
        <mxCell id="1" parent="0" />
        <mxCell id="735" value="Parameter x" style="text;spacingTop=-5;html=1;fontSize=18;fontStyle=0;points=[];strokeColor=none;" parent="1" vertex="1">
          <mxGeometry x="2410" y="970" width="80" height="20" as="geometry" />
        </mxCell>
        <mxCell id="9P2Qcr7v-NMx_UQ141s0-752" value="" style="rounded=1;whiteSpace=wrap;html=1;" vertex="1" parent="1">
          <mxGeometry x="2450" y="1280" width="120" height="60" as="geometry" />
        </mxCell>
        <mxCell id="9P2Qcr7v-NMx_UQ141s0-753" value="" style="endArrow=none;dashed=1;html=1;dashPattern=1 3;strokeWidth=2;" edge="1" parent="1">
          <mxGeometry width="50" height="50" relative="1" as="geometry">
            <mxPoint x="2600" y="1620" as="sourcePoint" />
            <mxPoint x="2600" y="1040" as="targetPoint" />
          </mxGeometry>
        </mxCell>
        <mxCell id="9P2Qcr7v-NMx_UQ141s0-755" value="" style="endArrow=none;dashed=1;html=1;dashPattern=1 3;strokeWidth=2;" edge="1" parent="1">
          <mxGeometry width="50" height="50" relative="1" as="geometry">
            <mxPoint x="2880" y="1040" as="sourcePoint" />
            <mxPoint x="2880" y="1620" as="targetPoint" />
          </mxGeometry>
        </mxCell>
        <mxCell id="9P2Qcr7v-NMx_UQ141s0-758" value="" style="rounded=1;whiteSpace=wrap;html=1;" vertex="1" parent="1">
          <mxGeometry x="2670" y="1070" width="120" height="60" as="geometry" />
        </mxCell>
        <mxCell id="9P2Qcr7v-NMx_UQ141s0-759" value="" style="rounded=1;whiteSpace=wrap;html=1;" vertex="1" parent="1">
          <mxGeometry x="2670" y="1150" width="120" height="60" as="geometry" />
        </mxCell>
        <mxCell id="9P2Qcr7v-NMx_UQ141s0-760" value="" style="rounded=1;whiteSpace=wrap;html=1;" vertex="1" parent="1">
          <mxGeometry x="2670" y="1241" width="120" height="60" as="geometry" />
        </mxCell>
        <mxCell id="9P2Qcr7v-NMx_UQ141s0-761" value="" style="rounded=1;whiteSpace=wrap;html=1;" vertex="1" parent="1">
          <mxGeometry x="2670" y="1330" width="120" height="60" as="geometry" />
        </mxCell>
        <mxCell id="9P2Qcr7v-NMx_UQ141s0-762" value="" style="rounded=1;whiteSpace=wrap;html=1;" vertex="1" parent="1">
          <mxGeometry x="2670" y="1420" width="120" height="60" as="geometry" />
        </mxCell>
        <mxCell id="9P2Qcr7v-NMx_UQ141s0-763" value="" style="rounded=1;whiteSpace=wrap;html=1;" vertex="1" parent="1">
          <mxGeometry x="2670" y="1500" width="120" height="60" as="geometry" />
        </mxCell>
      </root>
    </mxGraphModel>
  </diagram>
</mxfile>
